<?xml version="1.0" encoding="UTF-8" standalone="no"?>
<!-- Created with Inkscape (http://www.inkscape.org/) -->

<svg
   xmlns:dc="http://purl.org/dc/elements/1.1/"
   xmlns:cc="http://creativecommons.org/ns#"
   xmlns:rdf="http://www.w3.org/1999/02/22-rdf-syntax-ns#"
   xmlns:svg="http://www.w3.org/2000/svg"
   xmlns="http://www.w3.org/2000/svg"
   xmlns:sodipodi="http://sodipodi.sourceforge.net/DTD/sodipodi-0.dtd"
   xmlns:inkscape="http://www.inkscape.org/namespaces/inkscape"
   id="svg4216"
   version="1.1"
   inkscape:version="0.91 r13725"
   width="4241.25"
   height="1397.5"
   viewBox="0 0 4241.25 1397.5"
   sodipodi:docname="vnv_transparent.svg">
  <metadata
     id="metadata4222">
    <rdf:RDF>
      <cc:Work
         rdf:about="">
        <dc:format>image/svg+xml</dc:format>
        <dc:type
           rdf:resource="http://purl.org/dc/dcmitype/StillImage" />
        <dc:title></dc:title>
      </cc:Work>
    </rdf:RDF>
  </metadata>
  <defs
     id="defs4220">
    <inkscape:path-effect
       effect="spiro"
       id="path-effect4291"
       is_visible="true" />
    <inkscape:path-effect
       effect="spiro"
       id="path-effect4260"
       is_visible="true" />
    <inkscape:path-effect
       effect="spiro"
       id="path-effect4247"
       is_visible="true" />
  </defs>
  <sodipodi:namedview
     pagecolor="#ffffff"
     bordercolor="#666666"
     borderopacity="1"
     objecttolerance="10"
     gridtolerance="10"
     guidetolerance="10"
     inkscape:pageopacity="0"
     inkscape:pageshadow="2"
     inkscape:window-width="1674"
     inkscape:window-height="970"
     id="namedview4218"
     showgrid="false"
     showguides="true"
     inkscape:guide-bbox="true"
     inkscape:zoom="0.93363937"
     inkscape:cx="1965.6954"
     inkscape:cy="983.01952"
     inkscape:window-x="0"
     inkscape:window-y="0"
     inkscape:window-maximized="0"
     inkscape:current-layer="svg4216">
    <sodipodi:guide
       position="334.17614,1383.832"
       orientation="0,1"
       id="guide4231" />
    <sodipodi:guide
       position="816.16096,12.852928"
       orientation="0,1"
       id="guide4233" />
    <sodipodi:guide
       position="1495.224,726.19046"
       orientation="1,0"
       id="guide4235" />
    <sodipodi:guide
       position="1750.1404,766.8914"
       orientation="1,0"
       id="guide4237" />
    <sodipodi:guide
       position="2540.5955,722.97723"
       orientation="1,0"
       id="guide4239" />
    <sodipodi:guide
       position="2816.9335,627.65134"
       orientation="1,0"
       id="guide4241" />
    <sodipodi:guide
       position="2559.8973,410.49241"
       orientation="1,0"
       id="guide4317" />
  </sodipodi:namedview>
  <g
     inkscape:groupmode="layer"
     id="layer4"
     inkscape:label="Layer 1" />
  <path
     style="fill:#343434;fill-opacity:0.71764706;fill-rule:evenodd;stroke:#000000;stroke-width:1.00472379px;stroke-linecap:butt;stroke-linejoin:miter;stroke-opacity:1"
     d="m 1212.9546,14.959634 c -68.71,0.04101 -106.2767,51.017648 -134.2616,110.933576 C 958.82204,410.17051 799.62034,672.18252 685.9877,959.03444 L 275.53382,110.18983 C 253.33956,50.057468 197.88716,13.367596 137.07706,13.299804 66.162612,13.300029 21.550382,71.409246 23.065074,135.85254 c 0.472564,15.62811 -2.565649,23.51971 3.400824,40.00432 19.540332,43.59599 513.241942,1111.20234 543.474632,1146.95394 22.63015,40.0193 64.73129,59.5042 111.26567,59.5659 56.80285,-0.029 106.83577,-36.7889 123.01518,-90.3793 l 20.49212,-41.3707 2.15819,-0.031 491.92981,-1040.38262 c 15.441,-27.21598 22.5075,-47.17247 26.3437,-76.52282 0,-69.795825 -61.2754,-118.730861 -132.1906,-118.730023 z"
     id="path4245"
     inkscape:connector-curvature="0"
     sodipodi:nodetypes="ccccccccccccccc" />
  <path
     style="fill:#343434;fill-opacity:0.71764706;stroke:#ff0000;stroke-width:1.25305617;stroke-opacity:1"
     d="m 1619.4696,19.150385 c -68.2771,0.08256 -124.5475,52.24679 -128.0723,118.726565 l -0.457,0.0352 0,1116.06455 0.5645,0.023 c -0.2463,2.8426 -0.3929,5.6925 -0.4395,8.5449 0,69.1408 57.4888,125.1903 128.4043,125.1895 70.0273,-0.048 127.101,-54.7936 128.293,-123.0586 l 0.2363,0.01 0,-329.22071 -2.1426,0.041 0,-277.1953 -0.584,-16.7969 0.584,-32.32585 c 53.1151,-236.06018 229.7703,-316.8633 405.0821,-316.26407 186.6222,0.63789 371.7214,118.50683 404.6523,339.82622 l 0,4.2852 0,12.168 0.022,0.019 0,272.6523 -0.022,0 0,338.52921 c 4.3066,85.5202 77.361,125.8462 130.6719,127.3326 70.9147,-2e-4 130.5445,-61.0754 130.5445,-130.2155 -1.6544,-207.4931 -0.097,-415.30789 0.3864,-622.94983 -0.26,-9.63557 -1.2207,-32.59413 -2.4995,-48.18947 C 2760.4875,162.15833 2460.9902,23.492625 2157.8583,23.007585 2019.6311,22.786408 1877.4941,66.319185 1750.3134,159.20876 l -2.3145,0.36328 0,-40.9375 -2.9648,0.22266 c -12.373,-58.02279 -64.7799,-99.637363 -125.5645,-99.706585 z"
     id="ellipse4254-4"
     inkscape:connector-curvature="0"
     sodipodi:nodetypes="ccccccccccccccscccccccccccscccccc" />
  <path
     sodipodi:nodetypes="cccccccccccccccc"
     inkscape:connector-curvature="0"
     id="path4323"
     d="m 4100.5786,14.965611 c -68.7099,0.04114 -106.2766,51.177241 -134.2615,111.280599 -119.8708,285.16657 -279.0723,547.99821 -392.7048,835.74746 L 3163.159,110.4937 c -22.1944,-60.320462 -77.6467,-97.125108 -138.4566,-97.193111 -70.9145,2.25e-4 -115.5266,58.291218 -114.0119,122.936111 0.4726,15.67699 -2.5657,23.59328 3.4007,40.12946 19.5404,43.73236 513.2414,1114.67834 543.474,1150.54184 22.6301,40.1445 64.7313,59.6903 111.2656,59.7522 56.8027,-0.029 106.8356,-36.904 123.0151,-90.662 l 20.492,-41.5001 2.1582,-0.031 491.9292,-1043.63715 c 15.441,-27.30112 22.5075,-47.32003 26.3437,-76.7622 0,-70.014161 -61.2753,-119.102275 -132.1904,-119.101435 z"
     style="fill:#343434;fill-opacity:0.71764706;fill-rule:evenodd;stroke:#000000;stroke-width:1.00629342px;stroke-linecap:butt;stroke-linejoin:miter;stroke-opacity:1" />
</svg>
